<svg width="65" height="46" viewBox="0 0 65 46" fill="none" xmlns="http://www.w3.org/2000/svg">
<circle cx="19.678" cy="22.6877" r="19.0334" fill="#F1EBDF"/>
<path d="M19.1429 17.8404L41.3155 10.8564C44.4216 20.7149 46.6917 27.9239 49.6374 37.2748L27.4648 44.2588L19.1429 17.8404Z" stroke="#0D244C" stroke-width="1.64332" stroke-miterlimit="2.61313" stroke-linecap="round" stroke-linejoin="round"/>
<path d="M37.7872 16.1436L35.7841 9.78219C34.6771 6.2699 30.9312 4.31918 27.4186 5.42566C23.906 6.53044 21.9551 10.2779 23.0614 13.7902L25.0645 20.1499" stroke="#0D244C" stroke-width="1.6433" stroke-miterlimit="2.61313" stroke-linecap="round" stroke-linejoin="round"/>
<path d="M51.8454 39.2206L55.0169 40.2205L63.3554 13.7514L41.1405 6.75214L40.496 8.66901" stroke="#0D244C" stroke-width="1.64328" stroke-miterlimit="2.61313" stroke-linecap="round" stroke-linejoin="round"/>
<path d="M44.6748 12.0492L46.6825 5.67595C47.7921 2.15689 51.5439 0.201115 55.0645 1.31097C58.5836 2.41914 60.5385 6.17169 59.4295 9.69075L57.4218 16.064" stroke="#0D244C" stroke-width="1.6433" stroke-miterlimit="2.61313" stroke-linecap="round" stroke-linejoin="round"/>
</svg>
