<svg width="1926" height="617" viewBox="0 0 1926 617" fill="none" xmlns="http://www.w3.org/2000/svg">
<g clip-path="url(#clip0)">
<path fill-rule="evenodd" clip-rule="evenodd" d="M-15.4364 318.241C-12.5155 325.232 -9.914 331.457 -6.72499 339.09C-4.94734 321.674 -4.94736 321.674 -15.4364 318.241ZM-13.9869 341.287C-16.7027 334.441 -19.4174 327.591 -22.4916 319.832C-26.8202 330.669 -26.1935 332.24 -13.9869 341.287ZM1.05033 361.004C3.08938 350.663 4.85137 341.877 6.54866 333.074C8.02629 325.415 7.64487 324.945 -0.616206 324.246C-0.0287009 335.955 -5.54632 347.71 1.05033 361.004ZM178.968 938.935C197.166 946.209 215.334 941.341 224.355 927.081C209.641 930.921 193.792 935.064 178.968 938.935ZM7.39026 383.378C7.87289 382.214 8.5345 381.061 8.84755 379.814C12.3089 366.034 15.8679 352.275 19.0736 338.433C20.6665 331.561 19.8547 330.8 12.8036 329.641C10.836 338.548 8.95346 347.465 6.88363 356.34C4.77832 365.366 2.07923 374.351 7.39026 383.378V383.378ZM-35.0734 345.905C-25.2152 355.829 -15.333 365.773 -5.45189 375.718C-6.27836 358.703 -10.1186 352.505 -28.9589 334.828C-30.723 338.026 -32.4657 341.183 -35.0734 345.905V345.905ZM0.971019 402.954C1.56113 402.422 2.14862 401.895 2.73926 401.368C2.05105 398.415 1.32581 395.472 0.686648 392.508C-0.321921 387.839 -1.66076 383.67 -5.61833 380.174C-15.0315 371.852 -23.9515 362.966 -32.9425 354.175C-34.3748 352.776 -35.1397 350.694 -36.1097 349.098C-41.0581 353.408 -40.6396 356.267 -37.7835 359.57C-33.4215 364.61 -29.6388 370.167 -25.1673 375.102C-16.6187 384.536 -7.7586 393.688 0.971019 402.954V402.954ZM-8.74995 932.518C18.4673 949.668 53.2079 951.672 77.318 935.445C63.2998 935.904 48.7149 937.156 34.1927 936.65C19.4586 936.139 4.78354 933.89 -8.74995 932.518ZM-48.8464 367.198C-31.4764 391.016 -2.34845 421.096 7.3913 424.138C5.78427 412.158 5.04025 411.266 -0.163816 406.565C-8.50942 399.025 -16.8018 391.382 -24.5495 383.237C-31.418 376.021 -37.5148 368.064 -44.1673 360.185C-45.828 362.674 -47.3797 365.001 -48.8464 367.198V367.198ZM13.9582 412.174C22.9498 393.004 29.1645 373.167 32.9045 352.625C35.0265 340.974 34.7562 340.922 25.3363 336.169C24.8114 337.551 24.1884 338.876 23.8028 340.27C19.2682 356.7 14.7492 373.13 10.2928 389.581C9.86289 391.168 9.4528 392.968 9.77368 394.512C11.0045 400.434 12.5395 406.293 13.9582 412.174V412.174ZM54.1674 362.257C53.1317 366.3 52.2321 369.739 51.3676 373.193C44.9447 398.858 37.6202 424.273 25.2977 447.789C21.5624 454.917 23.6056 460.687 25.1177 468.295C26.7221 465.701 27.7672 464.157 28.6735 462.534C42.9291 436.963 52.5426 409.617 60.8084 381.609C63.4 372.833 59.6172 368.215 54.1674 362.257V362.257ZM40.8097 346.176C34.4004 372.379 27.9065 396.881 17.4055 420.188C16.8274 421.472 16.4402 423.1 16.6667 424.451C17.7666 430.999 19.107 437.511 20.5256 444.878C21.6542 443.02 22.4426 441.972 22.9805 440.803C35.0526 414.668 42.9197 387.155 49.5816 359.257C49.8378 358.182 49.5378 356.601 48.872 355.74C46.3232 352.448 43.5192 349.348 40.8097 346.176V346.176ZM32.2664 523.095C38.9048 511.231 45.8964 500.451 51.197 488.899C62.9366 463.317 73.8389 437.349 85.0083 411.506C85.3547 410.702 85.1825 409.377 84.7349 408.584C83.0976 405.683 81.2411 402.907 78.9584 399.271C77.9139 402.14 77.233 404.055 76.5161 405.96C64.1779 438.768 52.0965 471.723 34.1311 502C30.0906 508.809 29.7003 515.045 32.2664 523.095ZM10.6502 452.73C10.3982 448.097 10.0695 443.918 9.9683 439.739C9.85612 435.105 8.64144 431.474 4.11879 428.98C0.326098 426.887 -3.20102 424.033 -6.26011 420.934C-21.8024 405.198 -37.1542 389.274 -52.6673 373.318C-53.9007 375.264 -55.8156 378.29 -57.6454 381.186C-43.0094 407.394 -10.9121 441.095 10.6502 452.73V452.73ZM28.6052 499.402C29.5318 498.734 29.7416 498.656 29.8271 498.51C48.5344 465.827 61.7909 430.775 74.5855 395.524C74.932 394.569 75.1334 393.156 74.6784 392.383C72.3059 388.361 69.6982 384.473 66.8671 380.059C66.1168 381.917 65.5637 382.939 65.282 384.035C57.0386 416.118 45.3219 446.756 27.619 474.931C26.5995 476.554 26.1059 478.881 26.2718 480.801C26.7936 486.843 27.7469 492.844 28.6052 499.402ZM-69.8145 399.239C-45.408 429.428 -18.2414 456.378 13.7307 480.222C13.0253 473.966 12.9277 468.942 11.7365 464.199C11.0864 461.606 8.98164 458.997 6.84241 457.233C-1.83764 450.09 -11.2299 443.756 -19.5416 436.227C-35.6208 421.649 -48.7316 404.473 -60.8 386.106C-63.8325 390.521 -66.7267 394.742 -69.8145 399.239V399.239ZM250.495 881.479C234.889 893.161 218.402 903.033 200.223 909.461C182.018 915.894 163.453 921.315 144.524 927.347C148.557 928.651 152.255 930.619 156.094 930.952C171.568 932.304 186.82 931.125 202.091 927.618C227.402 921.811 244.25 907.703 250.495 881.479ZM21.912 547.394C23.3938 539.609 21.637 535.905 16.0625 533.019C-13.7975 517.549 -39.5105 496.559 -62.2594 471.989C-72.75 460.656 -82.2523 448.415 -92.1381 436.665C-97.5248 444.612 -97.4872 444.586 -91.9299 452.522C-72.1551 480.76 -47.4429 504.02 -19.0506 523.268C-6.20009 531.976 7.72366 539.108 21.912 547.394V547.394ZM36.2526 547.044C37.7642 544.498 38.9903 542.385 40.2613 540.303C61.5941 505.335 83.4889 470.663 98.2444 432.173C98.7661 430.811 99.2712 428.698 98.6111 427.754C95.611 423.47 92.1919 419.478 88.6042 414.986C74.8934 452.574 59.8468 488.789 38.9585 522.219C34.0195 530.124 32.2194 537.71 36.2526 547.044V547.044ZM119.014 447.116C112.441 462.795 106.443 478.229 99.5686 493.266C84.9514 525.229 69.071 556.52 47.9678 584.867C46.5272 586.803 45.3078 589.745 45.6381 591.973C46.283 596.314 48.0982 600.483 49.6546 605.451C50.5291 604.073 50.9543 603.483 51.2992 602.847C59.8525 587.074 68.2518 571.212 76.9773 555.539C90.4247 531.371 104.489 507.536 117.472 483.128C122.482 473.711 125.251 463.098 128.997 453.148C125.058 450.769 121.969 448.901 119.014 447.116ZM-78.5999 412.696C-52.6459 450.889 -21.5347 483.029 18.2299 508.225C17.273 502.929 15.7995 498.833 15.9816 494.816C16.2446 489.05 13.0498 486.316 9.02077 483.368C-12.8046 467.387 -32.8178 449.349 -51.0357 429.35C-58.4453 421.221 -65.6545 412.899 -73.1559 404.436C-75.0222 407.269 -76.6851 409.789 -78.5999 412.696ZM63.9061 648.887C65.248 646.633 66.5379 644.776 67.5256 642.767C84.834 607.548 105.514 574.312 126.806 541.42C143.029 516.359 152.135 488.356 160.639 459.576C158.029 458.689 155.742 457.912 153.55 457.171C153.109 457.812 152.807 458.089 152.7 458.423C140.531 496.955 125.054 534 101.768 567.263C87.9411 587.017 74.7238 607.011 64.4388 628.919C61.2988 635.603 59.5024 641.572 63.9061 648.887V648.887ZM125.79 917.564C130.137 921.482 134.454 922.719 139.847 921.055C145.284 919.375 150.995 918.602 156.519 917.178C187.528 909.185 216.847 897.607 243.739 879.632C256.892 870.835 261.755 858.26 266.983 843.291C226.379 882.246 176.131 899.741 125.79 917.564ZM20.1771 529.91C20.4542 520.805 19.8792 514.58 11.7793 509.994C-16.1809 494.164 -38.7206 471.827 -59.3886 447.586C-67.3309 438.272 -74.3831 428.197 -81.9377 418.346C-82.6916 419.447 -83.4998 420.506 -84.1849 421.644C-89.4338 430.336 -89.4599 430.368 -83.2374 438.632C-62.7498 465.858 -38.8249 489.624 -11.0927 509.425C-1.24859 516.459 9.14703 522.72 20.1771 529.91V529.91ZM-100.227 452.396C-101.296 454.849 -102.452 458.308 -104.238 461.397C-106.419 465.169 -105.6 467.762 -102.769 470.914C-75.7537 500.936 -46.1098 527.901 -11.5748 549.079C0.32924 556.379 12.8354 562.697 26.3923 570.205C25.6974 565.447 25.065 562.671 24.9309 559.864C24.7138 555.272 22.9884 552.424 18.4089 550.478C-11.1589 537.908 -37.0092 519.563 -59.7325 497.127C-73.9589 483.081 -86.6586 467.496 -100.227 452.396V452.396ZM51.1568 655.081C51.6097 654.491 52.062 653.901 52.5144 653.312C50.5641 645.397 49.1203 637.471 39.115 634.737C34.068 633.36 29.4134 630.313 24.7827 627.672C-21.6819 601.146 -63.4954 568.557 -101.314 530.771C-107.865 524.228 -114.603 517.873 -121.289 511.392C-124.955 517.612 -123.722 522.365 -118.678 527.181C-107.048 538.284 -96.1876 550.211 -84.4004 561.142C-57.9903 585.623 -30.8696 609.327 0.435676 627.521C17.0664 637.184 34.2324 645.924 51.1568 655.081V655.081ZM103.562 433.321C99.1898 443.391 95.6836 453.55 90.5838 462.837C73.9693 493.073 56.7642 522.991 39.8137 553.05C38.9027 554.667 37.4031 556.561 37.6322 558.111C38.755 565.739 40.3714 573.289 42.0781 582.258C73.5816 538.649 95.8213 492.124 114.389 443.453C110.785 440.083 107.215 436.738 103.562 433.321ZM-119.622 788.349C-117.535 798.539 -111.842 807.529 -102.054 814.928C-47.6229 856.064 13.9123 882.277 78.5974 901.958C86.1979 904.27 94.317 904.875 102.71 906.362C101.842 901.327 100.551 899.401 96.0869 898.614C86.2214 896.86 76.3423 894.481 66.9083 891.121C24.5855 876.037 -14.913 854.911 -53.4849 832.245C-76.456 818.747 -97.9955 802.813 -119.622 788.349ZM-109.053 473.877C-109.441 474.869 -109.961 476.914 -110.983 478.667C-113.906 483.687 -112.48 487.381 -108.321 491.017C-103.288 495.421 -98.6451 500.274 -93.9064 505.006C-63.9222 534.934 -32.4568 563.047 4.38908 584.465C13.809 589.938 23.5764 594.812 33.9741 600.384C31.849 592.886 29.5245 586.813 28.5655 580.531C27.9608 576.581 26.1059 574.844 22.9633 573.529C-10.5537 559.514 -39.6592 538.691 -66.5279 514.664C-81.155 501.583 -94.8946 487.516 -109.053 473.877V473.877ZM133.609 454.322C125.132 484.37 111.157 511.111 95.6314 537.251C81.993 560.219 69.1743 583.677 56.3828 607.131C51.9123 615.327 52.7143 619.121 57.3929 626.566C66.1189 611.811 74.0351 595.991 84.2032 581.783C101.168 558.074 116.703 533.677 128.124 506.832C135.145 490.334 141.547 473.57 148.394 456.508C142.786 455.678 138.476 455.042 133.609 454.322V454.322ZM-115.521 491.544C-116.399 494.232 -116.939 496.652 -117.963 498.844C-119.863 502.919 -119.585 506.044 -115.993 509.368C-107.997 516.766 -100.495 524.697 -92.6771 532.289C-55.7326 568.181 -14.5974 598.475 30.1224 623.942C34.7724 626.587 39.7453 628.669 45.3851 631.408C42.2587 623.243 39.7698 616.251 36.8401 609.452C36.1415 607.835 34.165 606.39 32.4396 605.644C-6.47874 588.785 -39.6076 563.464 -70.4839 534.966C-85.6391 520.977 -100.205 506.347 -115.521 491.544V491.544ZM-127.878 758.16C-127.625 767.99 -124.76 774.564 -118.442 779.965C-112.919 784.687 -107.457 789.508 -101.659 793.88C-51.2027 831.906 4.675 860.107 62.9366 883.816C74.0716 888.345 86.0194 890.886 98.1932 894.528C96.988 885.439 94.1595 880.978 85.5504 878.406C14.1252 857.039 -49.3598 820.547 -107.785 774.778C-114.496 769.519 -120.935 763.915 -127.878 758.16ZM182.104 478.427C171.64 511.434 158.299 541.884 141.748 570.55C121.523 605.581 100.517 640.304 74.1848 671.354C72.6905 673.113 70.9692 675.633 71.1325 677.663C71.492 682.129 72.9895 686.506 74.2521 691.907C76.8265 688.943 79.0137 686.851 80.6959 684.414C93.8219 665.406 107.57 646.769 119.762 627.171C144.249 587.81 167.892 547.926 191.771 508.189C192.803 506.472 193.657 503.696 192.988 502.068C189.876 494.503 186.197 487.172 182.104 478.427V478.427ZM93.6873 925.166C93.5756 924.561 93.464 923.961 93.3528 923.356C61.843 922.646 31.7795 914.882 2.22949 904.718C-27.3722 894.533 -54.4888 879.199 -81.6335 863.791C-69.0193 883.201 -54.4966 900.795 -36.1159 914.851C-32.1062 917.919 -27.5136 920.679 -22.7499 922.229C8.48126 932.361 40.5327 933.525 72.8658 929.721C79.8877 928.897 86.7515 926.716 93.6873 925.166V925.166ZM165.484 463.343C165.001 464.595 164.495 465.634 164.195 466.729C156.413 495.118 146.338 522.475 130.772 547.744C114.56 574.061 99.1574 600.875 83.5583 627.568C78.6527 635.958 74.7692 644.985 69.443 653.082C65.9916 658.331 65.882 662.709 69.0136 668.406C74.393 661.817 80.0134 655.837 84.5867 649.143C94.4897 634.648 103.393 619.455 113.536 605.137C139.654 568.275 157.792 527.431 173.984 485.612C178.907 472.891 177.963 471.509 166.546 463.479C166.409 463.38 166.175 463.421 165.484 463.343V463.343ZM116.215 910.656C116.515 911.517 116.817 912.378 117.117 913.239C119.142 913.082 121.353 913.4 123.164 912.691C147.781 903.127 172.743 894.314 196.801 883.498C220.891 872.666 243.587 859.038 262.36 839.967C266.868 835.386 271.966 830.393 274.043 824.601C279.495 809.392 283.429 793.64 287.974 778.102C287.353 777.784 286.727 777.46 286.106 777.142C240.718 835.861 184.825 881.296 116.215 910.656ZM-108.677 817.986C-103.273 827.789 -98.0038 837.666 -92.3729 847.34C-90.9031 849.865 -88.6512 852.286 -86.1791 853.825C-58.8157 870.877 -30.9359 886.999 -0.487855 898.04C27.3018 908.115 55.6455 915.957 85.3939 917.397C89.9697 917.621 94.6358 917.731 99.1282 917.032C101.071 916.734 102.675 914.256 104.432 912.774C102.726 912.012 101.088 910.917 99.3004 910.557C89.6384 908.616 79.6049 907.891 70.3065 904.875C6.85753 884.312 -54.2357 858.808 -108.677 817.986ZM196.524 510.677C181.217 536.953 166.89 563.062 151.117 588.264C127.83 625.476 106.667 664.175 77.4474 697.406C76.6366 698.33 75.7136 699.785 75.8774 700.824C76.7571 706.396 77.9655 711.911 79.2527 718.417C81.6262 715.396 83.4597 713.236 85.1069 710.946C99.2795 691.228 112.51 670.744 127.769 651.908C154.707 618.656 178.705 583.808 196.91 544.889C202.436 533.077 204.064 522.928 197.302 511.794C197.202 511.627 197.088 511.476 196.524 510.677V510.677ZM-126.016 526.116C-126.157 532.712 -132.125 538.07 -126.741 543.997C-113.878 558.153 -101.483 572.819 -87.7308 586.067C-46.5898 625.705 0.207676 657.288 51.9431 681.534C54.6156 682.791 57.3183 683.976 61.3578 685.802C59.4914 678.236 58.2376 671.923 56.2706 665.845C55.5954 663.763 53.4646 661.389 51.4401 660.622C18.2894 648.021 -11.7183 629.958 -39.1228 607.705C-69.7164 582.853 -98.8919 556.4 -126.016 526.116ZM97.5989 850.424C101.077 847.564 104.327 845.19 107.241 842.461C131.807 819.415 156.399 796.4 180.813 773.197C214.582 741.109 242.893 704.7 266.107 664.326C266.8 663.126 267.729 661.263 267.275 660.33C265.006 655.67 262.308 651.214 259.871 646.879C245.706 666.706 232.855 686.444 218.219 704.758C198.643 729.244 177.593 752.551 157.342 776.505C140.141 796.849 122.35 816.577 101.499 833.325C93.8814 839.44 93.7702 840.103 97.5989 850.424V850.424ZM109.698 887.709C110.613 887.067 111.238 886.665 111.83 886.216C140.466 864.459 169.209 842.848 197.688 820.887C212.229 809.674 226.98 798.592 240.404 786.121C258.437 769.373 271.903 748.721 285.579 728.383C286.205 727.46 287.04 726.244 286.899 725.294C285.704 716.967 284.306 708.671 282.97 700.364C281.144 701.21 280.648 701.987 280.173 702.785C259.277 737.697 234.462 769.289 202.895 795.331C186.356 808.975 170.079 822.947 153.987 837.119C139.761 849.641 126.256 862.998 111.795 875.233C106.931 879.35 105.91 882.423 109.698 887.709ZM89.5596 802.171C94.4083 797.553 98.3205 794.193 101.821 790.442C124.673 765.971 147.652 741.61 170.139 716.805C182.32 703.37 194.366 689.679 205.102 675.09C217.504 658.232 228.446 640.289 239.883 622.731C240.895 621.171 241.839 618.552 241.218 617.112C238.714 611.299 235.589 605.758 232.385 599.513C231.174 601.72 230.444 603.264 229.531 604.683C215.266 626.817 202.269 649.905 186.421 670.838C157.292 709.307 124.359 744.615 90.6287 779.125C89.2017 780.586 87.8174 782.923 87.856 784.822C87.962 790.108 88.8307 795.383 89.5596 802.171V802.171ZM83.5755 740.832C86.2297 737.952 89.0154 735.119 91.5846 732.109C108.092 712.725 124.029 692.83 141.144 674.005C170.689 641.504 194.575 605.289 214.64 566.391C215.386 564.941 216.466 562.974 216.038 561.716C213.179 553.332 209.949 545.077 206.401 535.607C189.03 577.249 166.338 613.851 138.608 647.687C120.948 669.241 106.088 693.06 89.0498 715.156C82.8805 723.16 78.3041 730.23 83.5755 740.832ZM67.4019 714.697C65.895 707.372 64.7482 701.987 63.6875 696.587C63.0671 693.42 61.5028 691.562 58.3691 690.034C42.1475 682.113 25.7047 674.506 10.1045 665.469C-38.5192 637.299 -82.233 602.946 -119.005 560.156C-122.566 556.013 -126.278 552.001 -130.645 547.123C-131.634 552.424 -132.214 556.733 -133.275 560.918C-134.399 565.348 -133.806 569.047 -130.461 572.366C-114.581 588.128 -99.5623 604.866 -82.7605 619.569C-53.0857 645.538 -20.0785 666.982 14.3553 686.152C31.4921 695.689 48.8939 704.758 67.4019 714.697V714.697ZM115.14 904.697C163.03 883.55 206.119 855.939 242.178 818.34C257.633 802.223 271.669 784.744 286.299 767.839C287.134 766.874 288.01 765.533 288.026 764.348C288.167 755.327 288.104 746.295 288.104 735.797C286.361 738.213 285.574 739.251 284.838 740.332C269.535 762.82 254.09 785.193 232.411 802.275C223.854 809.022 215.297 815.773 206.631 822.379C177.427 844.642 148.251 866.937 118.884 888.982C110.797 895.05 110.509 894.664 114.745 904.155C114.822 904.327 114.971 904.463 115.14 904.697V904.697ZM245.94 625.523C243.733 628.987 241.933 632.055 239.904 634.956C225.456 655.623 211.942 677.047 196.185 696.665C181.954 714.384 165.25 730.11 149.642 746.718C130.643 766.936 111.645 787.155 92.6678 807.389C91.9149 808.192 90.7378 809.267 90.8353 810.086C91.6566 816.926 92.7314 823.735 94.0118 832.491C106.738 820.412 118.815 810.274 129.325 798.712C153.533 772.07 177.822 745.424 200.484 717.483C219.357 694.213 235.98 669.116 253.475 644.739C254.503 643.31 255.348 640.581 254.675 639.302C252.222 634.654 249.092 630.365 245.94 625.523ZM271.418 668.177C262.188 682.103 253.84 695.59 244.579 708.42C235.187 721.438 225.586 734.425 214.869 746.337C179.847 785.266 142.16 821.476 101.734 854.812C100.584 855.756 99.4663 857.973 99.7794 859.247C100.94 863.963 102.704 868.534 104.403 873.647C107.747 870.851 110.603 868.612 113.295 866.191C135.355 846.333 156.538 825.395 179.61 806.804C219.137 774.945 252.061 737.676 278.358 694.406C279.234 692.961 279.996 690.712 279.505 689.287C277.105 682.296 274.256 675.45 271.418 668.177V668.177ZM86.883 773.829C89.078 771.763 90.684 770.437 92.0714 768.914C115.512 743.149 139.225 717.624 162.267 691.51C187.897 662.464 208.713 629.984 227.773 596.356C228.545 594.989 229.463 592.939 228.978 591.749C226.066 584.596 222.764 577.599 219.237 569.757C218.402 571.379 218.052 572.193 217.588 572.939C202.858 596.789 189.1 621.317 173.052 644.244C161.268 661.081 146.461 675.8 133.046 691.505C117.145 710.111 101.281 728.759 85.4434 747.417C84.7531 748.231 83.9788 749.447 84.0759 750.386C84.8638 757.925 85.8525 765.444 86.883 773.829V773.829ZM85.3615 841.548C84.0028 833.623 82.8722 826.522 81.4723 819.467C81.297 818.586 79.8152 817.672 78.7544 817.297C63.1281 811.766 47.085 807.222 31.8891 800.7C-22.3883 777.403 -70.1782 743.874 -114.902 705.702C-122.931 698.851 -130.918 691.948 -139.304 684.743C-139.304 687.258 -139.404 688.98 -139.286 690.691C-138.967 695.277 -138.786 699.895 -138.072 704.424C-137.776 706.302 -136.65 708.41 -135.25 709.709C-95.6543 746.42 -52.7372 778.525 -4.89882 803.867C23.6818 819.008 53.4886 831.087 85.3615 841.548ZM80.064 811.135C79.5929 808.604 79.2308 806.94 78.9829 805.26C78.0907 799.213 79.0967 791.72 75.8393 787.53C72.7134 783.513 65.1176 783.08 59.5968 780.799C1.14215 756.668 -53.1343 725.383 -102.538 685.807C-115.002 675.821 -127.309 665.641 -140.33 655.028C-140.33 660.236 -140.212 664.738 -140.361 669.236C-140.523 674.156 -138.846 677.918 -134.942 681.132C-129.339 685.755 -124.366 691.134 -118.759 695.747C-86.9836 721.892 -54.3531 746.838 -18.6504 767.526C12.5009 785.579 45.168 800.115 80.064 811.135V811.135ZM92.639 875.4C90.7153 867.318 88.7639 860.551 87.5978 853.653C86.9487 849.813 85.0406 848.467 81.6664 847.293C64.9308 841.465 47.9297 836.2 31.6909 829.183C-28.0328 803.387 -81.3356 767.682 -128.692 723.087C-130.906 721.005 -133.284 719.091 -136.831 716.023C-135.945 722.482 -135.42 727.027 -134.676 731.535C-133.929 736.069 -133.14 740.603 -132.007 745.048C-131.567 746.77 -130.391 748.508 -129.092 749.765C-125.66 753.094 -122.06 756.256 -118.383 759.318C-61.5701 806.585 0.894308 844.089 70.8518 868.586C77.7464 870.997 84.7969 872.959 92.639 875.4V875.4ZM71.7482 747.866C72.1343 747.261 72.5209 746.655 72.9075 746.05C71.8395 738.902 71.0668 731.691 69.5401 724.642C69.0376 722.325 67.0414 719.571 64.959 718.475C48.4655 709.793 31.383 702.165 15.2365 692.893C-37.6577 662.526 -87.5508 628.142 -128.214 581.903C-130.287 579.545 -132.372 577.197 -135.285 573.905C-136.393 585.78 -137.51 596.398 -138.235 607.047C-138.339 608.586 -136.885 610.595 -135.599 611.8C-128.064 618.86 -120.583 626.008 -112.679 632.645C-75.2685 664.065 -34.7119 690.952 7.91098 714.676C28.8582 726.333 50.4472 736.841 71.7482 747.866V747.866ZM75.6797 780.784C75.148 772.321 74.513 765.674 74.3946 759.016C74.3246 755.024 72.7275 753.188 69.0804 751.456C47.5639 741.245 25.7151 731.571 4.94633 719.983C-40.0375 694.881 -82.0874 665.38 -121.182 631.763C-127.174 626.613 -132.928 621.182 -138.792 615.881C-139.386 616.037 -139.982 616.194 -140.575 616.355C-140.575 624.949 -140.806 633.558 -140.435 642.141C-140.325 644.682 -139.196 647.886 -137.391 649.54C-127.545 658.576 -117.639 667.593 -107.205 675.936C-65.1134 709.589 -19.648 737.837 29.4807 760.091C44.3546 766.827 59.2843 773.443 75.6797 780.784V780.784ZM109.939 929.904C108.279 931.161 106.883 932.074 105.646 933.17C72.8522 962.201 36.0006 966.265 -4.11617 951.317C-21.6584 944.779 -36.9721 934.767 -50.215 921.796C-77.0242 895.54 -101.535 867.36 -117.022 832.678C-132.054 799.014 -143.896 764.249 -148.552 727.47C-155.866 669.7 -155.733 612.004 -144.25 554.746C-133.605 501.672 -117.025 450.633 -88.1028 404.373C-76.5364 385.872 -63.6457 368.2 -52.062 349.708C-44.7626 338.057 -38.6204 325.665 -32.2497 313.451C-28.1204 305.536 -28.3448 305.322 -19.5327 306.59C10.932 310.967 37.6249 323.197 57.4853 347.089C68.448 360.279 76.8855 375.53 87.1266 389.362C96.4443 401.942 106.259 414.214 116.62 425.943C123.426 433.644 132.622 438.622 142.7 440.897C168.067 446.631 184.523 462.91 196.362 484.955C208.608 507.745 219.633 531.063 227.861 555.653C237.869 585.582 251.356 613.731 269.133 639.965C294.72 677.746 303.783 719.936 300.277 765.152C298.252 791.297 289.059 815.481 279.975 839.613C272.159 860.374 263.153 880.686 254.591 901.16C249.28 913.86 241.406 924.957 232.056 934.913C217.04 950.889 198.752 956.451 177.241 951.244C159.981 947.065 144.157 939.494 128.537 931.359C126.081 930.081 123.597 928.85 120.007 927.034C124.291 939.614 131.442 948.865 139.772 956.863C147.729 964.497 156.744 971.118 165.734 977.572C187.965 993.533 210.695 1008.81 232.698 1025.07C240.467 1030.8 246.796 1038.51 253.61 1045.5C255.39 1047.33 256.517 1049.8 258.499 1052.83C250.715 1052.4 244.918 1051.8 239.591 1046.28C222.2 1028.26 201.027 1014.94 180.552 1000.79C170.159 993.606 159.443 986.88 149.235 979.445C131.728 966.704 118.35 950.482 109.939 929.904Z" fill="#3E6883" fill-opacity="0.05"/>
</g>
<defs>
<clipPath id="clip0">
<rect width="1926" height="616" fill="white" transform="translate(0 0.258789)"/>
</clipPath>
</defs>
</svg>
