<?xml version="1.0" encoding="utf-8"?><svg width="212" height="39" viewBox="0 0 212 39" fill="none" xmlns="http://www.w3.org/2000/svg">
<circle cx="16.4902" cy="19.625" r="16.3457" fill="#F1EBDF"/>
<path d="M16.0308 15.4623L35.0723 9.46455C37.7398 17.9309 39.6894 24.1219 42.2191 32.1524L23.1775 38.1501L16.0308 15.4623Z" stroke="#0D244C" stroke-width="1.41127" stroke-miterlimit="2.61313" stroke-linecap="round" stroke-linejoin="round"/>
<path d="M32.0423 14.005L30.322 8.54187C29.3713 5.52555 26.1544 3.8503 23.1378 4.80053C20.1212 5.7493 18.4458 8.9676 19.3959 11.9839L21.1162 17.4456" stroke="#0D244C" stroke-width="1.41125" stroke-miterlimit="2.61313" stroke-linecap="round" stroke-linejoin="round"/>
<path d="M44.1153 33.8232L46.839 34.6819L54 11.9505L34.9221 5.93963L34.3687 7.58582" stroke="#0D244C" stroke-width="1.41124" stroke-miterlimit="2.61313" stroke-linecap="round" stroke-linejoin="round"/>
<path d="M37.9573 10.4887L39.6815 5.01541C40.6343 1.99327 43.8564 0.313669 46.8798 1.2668C49.902 2.21849 51.5809 5.44113 50.6285 8.46327L48.9042 13.9365" stroke="#0D244C" stroke-width="1.41125" stroke-miterlimit="2.61313" stroke-linecap="round" stroke-linejoin="round"/>
<path d="M65.1 26.85C65.5333 26.85 65.8917 26.725 66.175 26.475C66.475 26.225 66.7083 25.925 66.875 25.575C67.0417 25.2083 67.25 24.6833 67.5 24L72.375 10.6249H74.125L79.45 24.25C79.5833 24.5833 79.725 25 79.875 25.5C80.025 25.9833 80.1167 26.3916 80.15 26.725C80.7 26.675 81.1833 26.65 81.6 26.65V28.575H74.875V26.925C75.675 26.925 76.075 26.5916 76.075 25.925C76.075 25.5916 75.9833 25.1916 75.8 24.725L75.3 23.35L69.875 23.45L69.475 24.625C69.425 24.7583 69.3083 25.0583 69.125 25.525C68.9583 25.9916 68.8083 26.3666 68.675 26.65C69.2083 26.6 69.8 26.575 70.45 26.575V28.575H65.1V26.85ZM74.675 21.575L73.525 18.45C73.0417 17.0833 72.725 15.9416 72.575 15.0249H72.55C72.2833 16.225 71.975 17.325 71.625 18.325L70.5 21.575H74.675ZM82.2035 19.975C82.0035 19.525 81.8618 19.1833 81.7785 18.95C81.7118 18.7166 81.6618 18.5166 81.6285 18.35C81.5952 18.1666 81.5702 18.025 81.5535 17.925L80.6285 17.975V16.075H86.4785V17.675C85.9118 17.6916 85.6285 17.9666 85.6285 18.5C85.6285 18.8 85.7118 19.175 85.8785 19.625L87.9785 24.8H88.0035L89.8285 19.65C90.0618 19.0166 90.3368 18.4333 90.6535 17.9V17.875L89.1035 17.975V16.075H93.8535V17.675C93.3368 17.7583 92.8952 18.0833 92.5285 18.65C92.1785 19.2166 91.8452 19.8916 91.5285 20.675L88.3285 28.65H86.1535L82.2035 19.975ZM97.983 28.975C96.933 28.975 96.0997 28.6666 95.483 28.05C94.883 27.4166 94.583 26.6166 94.583 25.65C94.583 24.1833 95.2663 23.075 96.633 22.325C97.9997 21.5583 99.6413 21.1333 101.558 21.05V19.75C101.558 18.2333 100.991 17.475 99.858 17.475C99.1247 17.475 98.5247 17.7083 98.058 18.175C98.258 18.4083 98.358 18.725 98.358 19.125C98.358 19.525 98.2163 19.8833 97.933 20.2C97.6663 20.5166 97.2663 20.675 96.733 20.675C96.233 20.675 95.8413 20.5166 95.558 20.2C95.2747 19.8666 95.133 19.4583 95.133 18.975C95.133 18.325 95.3663 17.75 95.833 17.25C96.2997 16.75 96.933 16.3666 97.733 16.1C98.5497 15.8166 99.4413 15.675 100.408 15.675C103.491 15.675 105.033 17.2666 105.033 20.45L105.008 24.55C105.008 25.35 104.975 26.0833 104.908 26.75C105.458 26.7 106 26.675 106.533 26.675V28.575H101.808C101.775 28.3583 101.741 27.975 101.708 27.425H101.683C100.666 28.4583 99.433 28.975 97.983 28.975ZM99.558 26.525C100.308 26.525 100.966 26.225 101.533 25.625V22.825C100.55 22.925 99.733 23.175 99.083 23.575C98.4497 23.975 98.133 24.5166 98.133 25.2C98.133 25.65 98.2663 25.9833 98.533 26.2C98.8163 26.4166 99.158 26.525 99.558 26.525ZM112.793 28.975C111.793 28.975 110.91 28.7166 110.143 28.2C109.393 27.6833 108.802 26.95 108.368 26C107.952 25.0333 107.743 23.9166 107.743 22.65C107.743 21.3166 108.002 20.125 108.518 19.075C109.035 18.0083 109.76 17.175 110.693 16.575C111.643 15.975 112.727 15.675 113.943 15.675C114.593 15.675 115.335 15.825 116.168 16.125V14.475C116.168 13.675 116.202 12.9416 116.268 12.275C115.718 12.325 115.127 12.3499 114.493 12.3499V10.45C115.543 10.45 116.393 10.375 117.043 10.225C117.693 10.075 118.127 9.89995 118.343 9.69995H119.693V24.55C119.693 25.35 119.66 26.0833 119.593 26.75C120.143 26.7 120.685 26.675 121.218 26.675V28.575H116.468L116.343 27.425H116.318C115.335 28.4583 114.16 28.975 112.793 28.975ZM114.093 26.7C114.51 26.7 114.902 26.5916 115.268 26.375C115.635 26.1583 115.935 25.8666 116.168 25.5V18C115.985 17.8666 115.727 17.7583 115.393 17.675C115.06 17.575 114.727 17.525 114.393 17.525C113.327 17.5416 112.56 18 112.093 18.9C111.643 19.8 111.418 20.925 111.418 22.275C111.418 23.475 111.635 24.5166 112.068 25.4C112.518 26.2666 113.193 26.7 114.093 26.7ZM125.986 28.975C124.936 28.975 124.103 28.6666 123.486 28.05C122.886 27.4166 122.586 26.6166 122.586 25.65C122.586 24.1833 123.269 23.075 124.636 22.325C126.003 21.5583 127.644 21.1333 129.561 21.05V19.75C129.561 18.2333 128.994 17.475 127.861 17.475C127.128 17.475 126.528 17.7083 126.061 18.175C126.261 18.4083 126.361 18.725 126.361 19.125C126.361 19.525 126.219 19.8833 125.936 20.2C125.669 20.5166 125.269 20.675 124.736 20.675C124.236 20.675 123.844 20.5166 123.561 20.2C123.278 19.8666 123.136 19.4583 123.136 18.975C123.136 18.325 123.369 17.75 123.836 17.25C124.303 16.75 124.936 16.3666 125.736 16.1C126.553 15.8166 127.444 15.675 128.411 15.675C131.494 15.675 133.036 17.2666 133.036 20.45L133.011 24.55C133.011 25.35 132.978 26.0833 132.911 26.75C133.461 26.7 134.003 26.675 134.536 26.675V28.575H129.811C129.778 28.3583 129.744 27.975 129.711 27.425H129.686C128.669 28.4583 127.436 28.975 125.986 28.975ZM127.561 26.525C128.311 26.525 128.969 26.225 129.536 25.625V22.825C128.553 22.925 127.736 23.175 127.086 23.575C126.453 23.975 126.136 24.5166 126.136 25.2C126.136 25.65 126.269 25.9833 126.536 26.2C126.819 26.4166 127.161 26.525 127.561 26.525ZM142.764 26.925C143.214 26.9083 143.555 26.8583 143.789 26.775C144.022 26.675 144.205 26.475 144.339 26.175C144.472 25.875 144.539 25.4 144.539 24.75V15.175C144.539 14.2416 144.572 13.4916 144.639 12.925L142.764 13V11.0749L149.864 11.025C152.147 11.0083 153.905 11.4083 155.139 12.225C156.389 13.0416 157.014 14.3666 157.014 16.2C157.014 17.35 156.639 18.375 155.889 19.275C155.155 20.1583 154.064 20.8083 152.614 21.225V21.25C152.914 21.3666 153.222 21.575 153.539 21.875C153.855 22.1583 154.122 22.475 154.339 22.825L155.514 24.575C156.08 25.4583 156.547 26.0666 156.914 26.4C157.297 26.7333 157.764 26.9083 158.314 26.925V28.575H154.189C153.905 28.375 153.622 28.0916 153.339 27.725C153.055 27.3416 152.73 26.8416 152.364 26.225L150.514 23.225C150.097 22.5583 149.747 22.075 149.464 21.775H148.164V24.45C148.164 25.4 148.13 26.1583 148.064 26.725C148.597 26.675 149.305 26.65 150.189 26.65V28.575H142.764V26.925ZM149.364 19.975C150.73 19.975 151.714 19.675 152.314 19.075C152.93 18.4583 153.239 17.5 153.239 16.2C153.239 14.8166 152.88 13.9 152.164 13.45C151.464 13 150.689 12.775 149.839 12.775C149.255 12.775 148.83 12.9 148.564 13.15C148.297 13.3999 148.164 13.9333 148.164 14.75V19.875C148.664 19.9416 149.064 19.975 149.364 19.975ZM165.261 28.975C164.044 28.975 162.969 28.7083 162.036 28.175C161.102 27.625 160.377 26.85 159.861 25.85C159.344 24.85 159.086 23.6833 159.086 22.35C159.086 21.1833 159.344 20.0916 159.861 19.075C160.394 18.0416 161.136 17.2166 162.086 16.6C163.036 15.9833 164.119 15.675 165.336 15.675C166.952 15.675 168.294 16.15 169.361 17.1C170.444 18.05 170.977 19.6333 170.961 21.85L162.761 22C162.761 23.4666 163.036 24.625 163.586 25.475C164.152 26.325 165.052 26.75 166.286 26.75C166.869 26.75 167.494 26.6 168.161 26.3C168.827 26 169.427 25.525 169.961 24.875L171.086 25.925C169.669 27.9583 167.727 28.975 165.261 28.975ZM167.511 20.25C167.461 18.3666 166.777 17.425 165.461 17.425C164.744 17.425 164.169 17.6833 163.736 18.2C163.319 18.7 163.044 19.3833 162.911 20.25H167.511ZM177.738 28.975C175.138 28.975 173.838 27.375 173.838 24.175L173.888 18.15H172.188V16.075C172.721 16.075 173.221 15.9083 173.688 15.575C174.171 15.2416 174.579 14.8333 174.913 14.35C175.246 13.8666 175.479 13.4 175.613 12.95H177.463L177.438 16.075H180.613V18L177.438 18.075L177.413 24.225C177.413 25.8416 177.913 26.65 178.913 26.65C179.713 26.65 180.471 26.15 181.188 25.15L182.388 26.275C181.604 27.425 180.821 28.1666 180.038 28.5C179.254 28.8166 178.488 28.975 177.738 28.975ZM186.24 28.975C185.19 28.975 184.357 28.6666 183.74 28.05C183.14 27.4166 182.84 26.6166 182.84 25.65C182.84 24.1833 183.523 23.075 184.89 22.325C186.257 21.5583 187.898 21.1333 189.815 21.05V19.75C189.815 18.2333 189.248 17.475 188.115 17.475C187.382 17.475 186.782 17.7083 186.315 18.175C186.515 18.4083 186.615 18.725 186.615 19.125C186.615 19.525 186.473 19.8833 186.19 20.2C185.923 20.5166 185.523 20.675 184.99 20.675C184.49 20.675 184.098 20.5166 183.815 20.2C183.532 19.8666 183.39 19.4583 183.39 18.975C183.39 18.325 183.623 17.75 184.09 17.25C184.557 16.75 185.19 16.3666 185.99 16.1C186.807 15.8166 187.698 15.675 188.665 15.675C191.748 15.675 193.29 17.2666 193.29 20.45L193.265 24.55C193.265 25.35 193.232 26.0833 193.165 26.75C193.715 26.7 194.257 26.675 194.79 26.675V28.575H190.065C190.032 28.3583 189.998 27.975 189.965 27.425H189.94C188.923 28.4583 187.69 28.975 186.24 28.975ZM187.815 26.525C188.565 26.525 189.223 26.225 189.79 25.625V22.825C188.807 22.925 187.99 23.175 187.34 23.575C186.707 23.975 186.39 24.5166 186.39 25.2C186.39 25.65 186.523 25.9833 186.79 26.2C187.073 26.4166 187.415 26.525 187.815 26.525ZM199.75 13.6C199.184 13.6 198.717 13.4083 198.35 13.025C197.984 12.625 197.8 12.1416 197.8 11.575C197.8 11.0083 197.992 10.525 198.375 10.125C198.759 9.70828 199.209 9.49995 199.725 9.49995C200.259 9.49995 200.7 9.69995 201.05 10.1C201.417 10.5 201.6 10.9916 201.6 11.575C201.6 12.1583 201.425 12.6416 201.075 13.025C200.742 13.4083 200.3 13.6 199.75 13.6ZM196.225 26.95C196.859 26.95 197.259 26.775 197.425 26.425C197.609 26.075 197.7 25.5083 197.7 24.725V20.575C197.7 19.7916 197.734 19.0666 197.8 18.4L196.05 18.475V16.575C197.1 16.575 197.95 16.5 198.6 16.35C199.25 16.2 199.684 16.025 199.9 15.8249H201.25V24.55C201.25 25.35 201.217 26.0833 201.15 26.75C201.684 26.7 202.225 26.675 202.775 26.675V28.575H196.225V26.95ZM204.004 26.95C204.454 26.95 204.779 26.8666 204.979 26.7C205.196 26.5166 205.329 26.275 205.379 25.975C205.446 25.675 205.479 25.2583 205.479 24.725V14.45C205.479 13.65 205.512 12.925 205.579 12.275L203.829 12.3499V10.45C204.879 10.45 205.729 10.375 206.379 10.225C207.029 10.075 207.462 9.89995 207.679 9.69995H209.029V24.55C209.029 25.35 208.996 26.0833 208.929 26.75C209.479 26.7 210.021 26.675 210.554 26.675V28.575H204.004V26.95Z" fill="#0D244C"/>
</svg>
